<svg width="32" height="32" viewBox="0 0 32 32" fill="none" xmlns="http://www.w3.org/2000/svg">
<path d="M28.3951 16.2228C28.7993 18.6396 26.6553 20.0017 24.4841 20.1587C23.1021 22.9404 18.2336 24.8188 14.0076 22.7956C12.2011 23.0631 11.2109 22.6209 10.4465 21.7773C11.9911 19.8315 16.6665 16.3289 22.3784 18.1366C25.4268 19.1018 26.2172 16.8342 25.4528 15.984C22.576 12.7844 16.0816 15.6645 15.8468 15.9044C18.3985 12.0823 27.5246 11.0099 28.3951 16.2228ZM19.6483 11.8303C19.6641 11.8247 17.5743 11.1028 14.6511 12.3388C14.5335 12.2961 14.4181 12.2474 14.3056 12.1929C17.117 10.3643 19.5817 9.58812 21.6885 9.88995C20.4127 8.45157 14.2819 7.39462 10.7694 10.8408C6.42709 10.0038 3.38993 13.607 3.56267 16.8972C3.73542 20.1875 7.40146 22.2361 9.49022 21.6811C9.54042 21.6745 9.59131 21.6745 9.64151 21.6811C10.1044 19.5064 11.9945 14.4472 19.6483 11.8303Z" fill="#2368F5"/>
</svg>
